<?xml version="1.0" encoding="UTF-8" standalone="no"?>
<svg
   xmlns:dc="http://purl.org/dc/elements/1.1/"
   xmlns:cc="http://creativecommons.org/ns#"
   xmlns:rdf="http://www.w3.org/1999/02/22-rdf-syntax-ns#"
   xmlns:svg="http://www.w3.org/2000/svg"
   xmlns="http://www.w3.org/2000/svg"
   xmlns:sodipodi="http://sodipodi.sourceforge.net/DTD/sodipodi-0.dtd"
   xmlns:inkscape="http://www.inkscape.org/namespaces/inkscape"
   inkscape:version="1.0 (4035a4fb49, 2020-05-01)"
   inkscape:export-ydpi="96.0261"
   inkscape:export-xdpi="96.0261"
   inkscape:export-filename="C:\Users\jonth\Downloads\bespoke.png"
   sodipodi:docname="beekeeper.svg"
   xml:space="preserve"
   style="enable-background:new 0 0 738 852;"
   viewBox="0 0 738 852"
   y="0px"
   x="0px"
   id="Layer_1"
   version="1.1"><metadata
   id="metadata103"><rdf:RDF><cc:Work
       rdf:about=""><dc:format>image/svg+xml</dc:format><dc:type
         rdf:resource="http://purl.org/dc/dcmitype/StillImage" /><dc:title></dc:title></cc:Work></rdf:RDF></metadata><defs
   id="defs101">
		
		
		
		
		
		
		
		
		
		
		
	<pattern
   id="grid"
   width="80"
   height="80"
   patternUnits="userSpaceOnUse"><rect
     width="80"
     height="80"
     fill="url(#smallGrid)"
     id="rect5" /><path
     d="M 80 0 L 0 0 0 80"
     fill="none"
     stroke="white"
     stroke-width="1"
     id="path7" /></pattern><pattern
   id="smallGrid"
   width="8"
   height="8"
   patternUnits="userSpaceOnUse"><path
     d="M 8 0 L 0 0 0 8"
     fill="none"
     stroke="white"
     stroke-width="0.5"
     id="path2" /></pattern><pattern
   id="grid-3"
   width="200"
   height="200"
   patternUnits="userSpaceOnUse"><rect
     width="200"
     height="200"
     fill="url(#smallGrid)"
     id="rect5-9"
     style="fill:url(#smallGrid-1)" /><path
     d="M 80 0 L 0 0 0 80"
     fill="none"
     stroke="white"
     stroke-width="10"
     id="path7-5" /></pattern><pattern
   id="smallGrid-1"
   width="20"
   height="20"
   patternUnits="userSpaceOnUse"><path
     d="M 8 0 L 0 0 0 8"
     fill="none"
     stroke="white"
     stroke-width="5"
     id="path2-7" /></pattern><pattern
   id="grid-7"
   width="80"
   height="80"
   patternUnits="userSpaceOnUse"><rect
     width="80"
     height="80"
     fill="url(#smallGrid)"
     id="rect5-1"
     style="fill:url(#smallGrid-18)" /><path
     d="M 80 0 L 0 0 0 80"
     fill="none"
     stroke="white"
     stroke-width="4"
     id="path7-50" /></pattern><pattern
   id="smallGrid-18"
   width="8"
   height="8"
   patternUnits="userSpaceOnUse"><path
     d="M 8 0 L 0 0 0 8"
     fill="none"
     stroke="white"
     stroke-width="2"
     id="path2-2" /></pattern>
			
			
			
			
			
			
			
			
			
		<linearGradient
   id="linearGradient3252"><stop
     style="stop-color:#000000;stop-opacity:0.9910714;"
     offset="0"
     id="stop3254" /><stop
     id="stop3926"
     offset="0.5138889"
     style="stop-color:#000000;stop-opacity:0.6160714;" /><stop
     id="stop3260"
     offset="1"
     style="stop-color:#8d8d8d;stop-opacity:0;" /></linearGradient><linearGradient
   id="linearGradient3384"><stop
     style="stop-color:#f60000;stop-opacity:1;"
     offset="0"
     id="stop3386" /><stop
     style="stop-color:#b30000;stop-opacity:1;"
     offset="1"
     id="stop3388" /></linearGradient><linearGradient
   id="linearGradient3206"><stop
     id="stop3214"
     offset="0"
     style="stop-color:#7f0000;stop-opacity:1;" /><stop
     style="stop-color:#840000;stop-opacity:0.49803922;"
     offset="0.66666669"
     id="stop3828" /><stop
     style="stop-color:#000000;stop-opacity:0;"
     offset="1"
     id="stop3210" /></linearGradient><linearGradient
   id="linearGradient3216"><stop
     style="stop-color:#d43500;stop-opacity:1;"
     offset="0"
     id="stop3218" /><stop
     id="stop3242"
     offset="0.48051697"
     style="stop-color:#d42400;stop-opacity:1;" /><stop
     id="stop3224"
     offset="0.7361111"
     style="stop-color:#d40000;stop-opacity:1;" /><stop
     style="stop-color:#b20000;stop-opacity:1;"
     offset="1"
     id="stop3236" /></linearGradient><clipPath
   id="clipPath5788"
   clipPathUnits="userSpaceOnUse"><polygon
     id="polygon5790"
     points="4.3,637.6 4.3,215.5 371,8.4 729.7,215.5 729.7,637.6 371,846 "
     class="st0"
     style="display:inline;fill:#000000;fill-opacity:0" /></clipPath><linearGradient
   gradientTransform="matrix(0.56308228,0,0,0.57457597,291.63153,251.11903)"
   id="gradientFill-2"
   x1="301.02603"
   x2="703.06751"
   y1="151.40061"
   y2="553.44209"
   gradientUnits="userSpaceOnUse"
   spreadMethod="pad"><stop
     offset="0"
     stop-color="rgb(39,109,195)"
     stop-opacity="1"
     id="stop2249" /><stop
     offset="1"
     stop-color="rgb(22,92,170)"
     stop-opacity="1"
     id="stop2251" /></linearGradient><linearGradient
   gradientTransform="matrix(0.6950409,0,0,0.4654885,291.63153,251.11903)"
   id="gradientFill-1"
   x1="0.74144253"
   x2="590.86259"
   y1="3.6658269"
   y2="593.78698"
   gradientUnits="userSpaceOnUse"
   spreadMethod="pad"><stop
     offset="0"
     stop-color="rgb(203,206,208)"
     stop-opacity="1"
     id="stop2244" /><stop
     offset="1"
     stop-color="rgb(132,131,139)"
     stop-opacity="1"
     id="stop2246" /></linearGradient></defs><sodipodi:namedview
   inkscape:current-layer="g2927"
   inkscape:window-maximized="1"
   inkscape:window-y="-8"
   inkscape:window-x="-8"
   inkscape:cy="432.53979"
   inkscape:cx="533.1291"
   inkscape:zoom="0.70766351"
   showgrid="false"
   id="namedview99"
   inkscape:window-height="1369"
   inkscape:window-width="2560"
   inkscape:pageshadow="2"
   inkscape:pageopacity="0"
   guidetolerance="10"
   gridtolerance="10"
   objecttolerance="10"
   borderopacity="1"
   bordercolor="#666666"
   pagecolor="#ffffff"
   inkscape:document-rotation="0"
   showguides="false" />
<style
   id="style2"
   type="text/css">
	.st0{fill:#141227;}
	.st1{opacity:0.94;enable-background:new    ;}
	.st2{fill:#FFFFFF;}
	.st3{enable-background:new    ;}
	.st4{fill:#DB1F26;}
	.st5{fill:#00A5DC;}
	.st6{fill:#36A85D;}
	.st7{fill:#B57AB4;}
	.st8{fill:#F7A238;}
	.st9{fill:#FFF34D;}
	.st10{opacity:0.4;}
	.st11{fill:#A65628;}
	.st12{fill:#164F86;}
	.st13{fill:#404040;}
</style>
<g
   id="g96">
	
<polygon
   style="display:inline;fill:#ffffff;fill-opacity:1"
   class="st0"
   points="729.7,215.5 729.7,637.6 371,846 4.3,637.6 4.3,215.5 371,8.4 "
   id="polygon4" /><path
   style="display:inline;fill:#000000;fill-opacity:1"
   class="st13"
   d="M 707.1,197.2 429.3,36.8 369,2 308.7,36.8 30.9,197.2 1.6,214.1 v 424.3 l 29.3,16.9 281.3,162.4 56.9,32.8 56.9,-32.8 281.3,-162.4 29.3,-16.9 V 214.1 Z m 0,425.3 L 369,817.7 30.9,622.5 V 232.1 L 369,36.8 v 0 L 707.1,232 Z"
   id="path93" /><g
   transform="matrix(0.857375,0,0,0.857375,104.44886,132.75483)"
   id="g2865"><path
     id="path2256"
     fill-rule="evenodd"
     fill="url(#gradientFill-1)"
     d="m 497.22604,527.52005 c -113.26176,0 -205.07918,-61.49242 -205.07918,-137.34702 0,-75.85519 91.81742,-137.3476 205.07918,-137.3476 113.2623,0 205.07908,61.49241 205.07908,137.3476 0,75.8546 -91.81678,137.34702 -205.07908,137.34702 z m 31.39093,-220.99647 c -86.08904,0 -155.87796,42.03886 -155.87796,93.89637 0,51.85752 69.78892,93.8964 155.87796,93.8964 86.08845,0 149.6206,-28.74092 149.6206,-93.8964 0,-65.13499 -63.53215,-93.89637 -149.6206,-93.89637 z"
     style="fill:url(#gradientFill-1);stroke-width:0.5688" /><path
     id="path2258"
     fill-rule="evenodd"
     fill="url(#gradientFill-2)"
     d="m 604.47158,465.55666 c 0,0 12.41234,3.74557 19.6236,7.3944 2.50215,1.26616 6.83133,3.79277 9.95404,7.11001 3.05897,3.24898 4.55037,6.54121 4.55037,6.54121 l 48.91689,82.47599 -79.0633,0.0353 -36.972,-69.42889 c 0,0 -7.57073,-13.00787 -12.22921,-16.77959 -3.88604,-3.14604 -5.54295,-4.26601 -9.38521,-4.26601 -2.67449,0 -18.78518,0 -18.78518,0 l 0.0147,90.42443 -69.96242,0.0296 v -230.983 h 140.49363 c 0,0 63.99006,1.15409 63.99006,62.03445 0,60.8804 -61.14607,65.41202 -61.14607,65.41202 z m -30.43081,-77.34316 -42.35456,-0.0272 -0.021,39.27565 42.37561,-0.0137 c 0,0 19.62361,-0.0609 19.62361,-19.97911 0,-20.31867 -19.62361,-19.25557 -19.62361,-19.25557 z"
     style="fill:url(#gradientFill-2);stroke-width:0.5688" /></g><g
   transform="matrix(9.8431438,0,0,9.8431438,-430.38644,-470.52744)"
   id="g844"><text
     id="text835"
     y="103.56547"
     x="65.011909"
     style="font-size:38.1px;line-height:1.25;font-family:'Courier New';-inkscape-font-specification:'Courier New';stroke-width:0.264583"
     xml:space="preserve"><tspan
       style="font-style:normal;font-variant:normal;font-weight:bold;font-stretch:normal;font-size:38.1px;font-family:sans-serif;-inkscape-font-specification:'sans-serif Bold';fill:#000000;fill-opacity:1;stroke-width:0.264583"
       y="103.56547"
       x="65.011909"
       id="tspan833"
       sodipodi:role="line">2</tspan></text><path
     transform="rotate(-3,89.798953,175.02346)"
     inkscape:transform-center-y="0.0062834764"
     inkscape:transform-center-x="-1.6503914"
     d="m 99.624717,101.49561 -5.105854,2.61378 -5.105855,2.61378 0.289328,-5.72869 0.289328,-5.728691 4.816526,3.11491 z"
     inkscape:randomized="0"
     inkscape:rounded="0"
     inkscape:flatsided="false"
     sodipodi:arg2="1.0976597"
     sodipodi:arg1="0.050462174"
     sodipodi:r2="3.311676"
     sodipodi:r1="6.6233516"
     sodipodi:cy="101.16152"
     sodipodi:cx="93.009796"
     sodipodi:sides="3"
     id="path839"
     style="opacity:1;mix-blend-mode:normal;fill:#000000;fill-opacity:1;stroke:none;stroke-width:0.529;stroke-miterlimit:4;stroke-dasharray:none"
     sodipodi:type="star" /></g><g
   transform="matrix(0.75951776,0,0,0.75951776,150.07818,523.10217)"
   id="g2927"><text
     xml:space="preserve"
     style="font-size:144px;line-height:1.25;font-family:'Courier New';-inkscape-font-specification:'Courier New';stroke:#ffffff;stroke-width:5.26649963;stroke-miterlimit:4;stroke-dasharray:none;stroke-opacity:1;"
     x="113.90402"
     y="-265.74664"
     id="text2220"><tspan
       sodipodi:role="line"
       id="tspan2218"
       x="113.90402"
       y="-265.74664"
       style="font-style:normal;font-variant:normal;font-weight:bold;font-stretch:normal;font-size:144px;font-family:sans-serif;-inkscape-font-specification:'sans-serif Bold';fill:#6ba43a;fill-opacity:1;stroke:#ffffff;stroke-width:5.26649963;stroke-miterlimit:4;stroke-dasharray:none;stroke-opacity:1;">API</tspan></text><g
     id="g36"
     transform="matrix(2.3517992,0,0,2.3517992,-140.77002,-456.5304)"><path
       id="path2-3"
       fill="#93d500"
       d="M 32.6,67.4 H 3.044 l 0.017,0.433 0.05,0.833 0.022,0.356 0.08,0.962 0.02,0.215 0.115,1.065 a 1.16,1.16 0 0 0 0.011,0.103 l 0.15,1.144 c 0.342,2.37 0.85,4.704 1.53,6.998 l 0.01,0.03 0.353,1.14 0.02,0.063 0.325,0.968 0.086,0.244 0.304,0.837 0.143,0.378 0.27,0.7 0.213,0.52 0.226,0.54 0.3,0.658 0.175,0.4 0.368,0.787 0.122,0.252 0.443,0.895 0.07,0.137 0.54,1.025 0.115,0.2 L 34.447,74 c -0.996,-2.1 -1.616,-4.332 -1.846,-6.6 z m -28.16,13.562 0.008,0.027 0.954,-0.3 z" /><path
       id="path4"
       fill="#4d5a31"
       d="m 39.865,80.977 -20.9,20.89 0.323,0.298 0.893,0.792 0.71,0.602 0.192,0.16 0.812,0.654 0.105,0.083 0.894,0.686 a 0.23,0.23 0 0 1 0.034,0.025 l 3.895,2.633 0.14,0.085 0.767,0.453 0.47,0.268 0.446,0.25 0.814,0.44 0.113,0.06 2.303,1.118 11.247,-27.32 c -1.142,-0.61 -2.238,-1.334 -3.27,-2.18 z" /><path
       id="path6"
       fill="#6ba43a"
       d="m 37.697,78.904 -0.65,-0.765 -0.54,-0.697 -0.578,-0.818 -0.54,-0.843 -25.276,15.225 1.302,2.045 0.105,0.154 0.006,0.01 1.358,1.914 0.03,0.04 0.03,0.04 0.614,0.8 0.737,0.915 0.158,0.19 0.604,0.713 0.266,0.302 0.524,0.6 0.297,0.322 0.135,0.146 0.4,0.42 0.16,0.164 0.7,0.716 20.85,-20.85 -0.683,-0.73 z" /><path
       id="path8"
       fill="#4d5a31"
       d="m 65.334,80.966 -0.697,0.54 0.052,0.087 15.202,25.235 2.08,-1.432 c 1.47,-1.085 2.895,-2.26 4.267,-3.527 L 65.416,81.049 Z" /><g
       id="g24"
       fill="#93d500"><path
         id="path10"
         d="m 77.97,108.03 0.034,-0.02 -0.001,-0.001 -0.033,0.02 z m -0.015,0.01 h 0.001 v 0 z" /><path
         id="path12"
         d="m 78.003,108 0.2,-0.1 -0.004,-0.007 -0.196,0.117 z m -0.043,0.035 0.01,-0.005 z" /><path
         id="path14"
         d="m 77.955,108.04 h 0.001 l -0.037,-0.062 z m 0.015,-0.01 0.034,-0.018 z m -0.02,0.01 -0.01,0.005 0.01,-0.004 z" /><path
         id="path16"
         d="m 77.95,108.04 v 10e-4 l 0.005,-0.003 h -0.001 z" /><path
         id="path18"
         d="m 77.96,108.035 -0.006,0.003 0.015,-0.01 z m 0.044,-0.023 0.198,-0.112 z m 0.198,-0.112 -0.004,-0.007 z m -0.268,0.15 h 0.002 z" /><path
         id="path20"
         d="m 77.942,108.047 -0.006,0.003 z" /><path
         id="path22"
         d="m 77.682,107.036 -14.706,-24.4 -0.874,0.487 -0.896,0.45 a 20.15,20.15 0 0 1 -8.632,1.953 20.1,20.1 0 0 1 -5.742,-0.838 l -0.945,-0.332 -0.944,-0.335 -11.226,27.265 0.082,0.03 0.086,0.033 h 0.001 l 0.022,0.01 2.155,0.825 a 49.94,49.94 0 0 0 10.12,2.422 17.83,17.83 0 0 1 0.404,0.054 l 1.222,0.133 0.198,0.017 0.98,0.082 0.333,0.02 0.858,0.05 0.526,0.02 0.682,0.024 1.218,0.015 a 49.76,49.76 0 0 0 8.233,-0.686 l 0.138,-0.02 0.864,-0.157 0.5,-0.095 0.505,-0.106 0.842,-0.185 0.152,-0.035 a 49.85,49.85 0 0 0 11.897,-4.436 l 0.001,-0.001 0.73,-0.4 1.483,-0.836 -0.024,-0.07 0.037,0.063 0.048,-0.028 0.195,-0.117 z M 39.876,49.852 40.573,49.312 40.521,49.225 25.32,24 23.235,25.436 c -1.47,1.082 -2.893,2.257 -4.262,3.522 L 39.795,49.77 Z" /></g><path
       id="path26"
       fill="#4d5a31"
       d="m 17.53,30.334 -1.384,1.445 c -1.538,1.665 -2.944,3.4 -4.212,5.22 l -0.182,0.26 -0.423,0.625 -0.43,0.656 -0.156,0.24 a 49.48,49.48 0 0 0 -7.7,24.627 l -0.027,1 -0.017,1 h 29.488 l 0.048,-1 0.055,-1 a 20.01,20.01 0 0 1 4.447,-10.74 c 0.2,-0.256 0.447,-0.496 0.672,-0.743 0.225,-0.247 0.432,-0.504 0.67,-0.742 z m 60.843,-7.32 -0.122,-0.073 -0.783,-0.465 -0.457,-0.26 -0.46,-0.256 -0.8,-0.432 -0.126,-0.066 c -1.73,-0.904 -3.505,-1.7 -5.318,-2.4 l -0.14,-0.054 -1.2,-0.433 c -3.22,-1.125 -6.552,-1.914 -9.936,-2.358 l -0.415,-0.056 -0.415,-0.046 -0.8,-0.087 -0.224,-0.02 -0.953,-0.08 -1.2,-0.073 -0.434,-0.017 v 29.56 c 1.517,0.157 3.02,0.48 4.478,0.975 L 80.83,24.63 a 48.97,48.97 0 0 0 -2.464,-1.614 z" /><path
       id="path28"
       fill="#6ba43a"
       d="M 27.53,23.78 27.014,22.923 Z M 27,22.92 l 0.003,0.005 z m 24.606,-7.095 -1,0.02 c -2.086,0.084 -4.168,0.297 -6.233,0.643 l -0.136,0.023 -0.865,0.157 -0.5,0.094 -0.508,0.106 -0.84,0.184 -0.153,0.034 a 49.89,49.89 0 0 0 -11.898,4.438 l -2.47,1.394 0.003,0.005 15.22,25.27 0.874,-0.487 a 19.71,19.71 0 0 1 0.895,-0.451 20.05,20.05 0 0 1 6.601,-1.85 l 1,-0.08 1,-0.034 0.001,-29.487 c -0.334,-10e-4 -0.667,0.013 -1,0.02 z" /><path
       id="path30"
       fill="#4d5a31"
       d="m 102.15,62.97 -0.048,-0.795 -0.026,-0.397 -0.077,-0.934 -0.02,-0.242 -0.11,-1.043 -0.01,-0.084 -0.005,-0.04 -0.15,-1.124 c -10e-4,-0.01 -0.002,-0.025 -0.005,-0.035 a 49.56,49.56 0 0 0 -1.524,-6.972 l -0.014,-0.044 -0.328,-1.063 -0.045,-0.14 -0.32,-0.954 -0.09,-0.258 -0.3,-0.823 -0.15,-0.39 -0.265,-0.678 -0.218,-0.534 -0.22,-0.526 -0.294,-0.67 -0.17,-0.378 -0.373,-0.797 -0.116,-0.242 -0.448,-0.906 -0.065,-0.125 -0.52,-1 c -0.007,-0.01 -0.012,-0.024 -0.02,-0.035 -0.86,-1.58 -1.802,-3.108 -2.822,-4.578 L 71.632,58.93 a 20.5,20.5 0 0 1 0.974,4.477 h 29.56 z" /><path
       id="path32"
       fill="#6ba43a"
       d="m 72.722,65.408 -0.048,1 -0.055,1 c -0.38,3.84 -1.863,7.6 -4.446,10.74 -0.2,0.256 -0.447,0.496 -0.672,0.743 -0.225,0.247 -0.432,0.504 -0.67,0.742 l 20.85,20.85 c 0.237,-0.237 0.46,-0.482 0.69,-0.723 l 0.69,-0.723 c 1.543,-1.67 2.953,-3.42 4.224,-5.236 l 0.148,-0.214 0.458,-0.673 0.395,-0.605 0.2,-0.295 c 4.782,-7.51 7.34,-16.02 7.685,-24.607 l 0.027,-1 0.017,-1 H 72.722 Z" /><path
       id="path34"
       fill="#424143"
       d="m 110.967,7.046 c -5.395,-5.395 -14.142,-5.395 -19.536,0 -4.304,4.303 -5.164,10.736 -2.6,15.902 L 58.74,53.04 c -5.166,-2.562 -11.6,-1.703 -15.903,2.6 a 13.82,13.82 0 0 0 0,19.537 13.82,13.82 0 0 0 19.538,-0.001 c 4.303,-4.303 5.162,-10.736 2.6,-15.903 l 30.09,-30.09 c 5.167,2.562 11.6,1.703 15.902,-2.6 5.396,-5.393 5.396,-14.14 0.001,-19.535 z" /></g></g></g>
</svg>
